# xmcd CD database file
#
# Track frame offsets:
#	150
#	8998
#	31751
#	51943
#	65301
#	102475
#	127253
#	152442
#	194339
#	226387
#	252971
#	275238
#	291326
#
# Disc length: 4414 seconds
#
# Revision: 0
# Processed by: cddbd v1.5PL3 Copyright (c) Steve Scherf et al.
# Submitted via: CDex 1.51
#
DISCID=be113c0d
DTITLE=STRANGE GARDEN - Transonic Archives STRANGE GARDEN 1996-1998
DYEAR=2001
DGENRE=Electronic
TTITLE0=An Islamic Boat Song
TTITLE1=Retro Electro Restaurant
TTITLE2=Edit The Life (Ritual of The Back Yard Version)
TTITLE3=Jagul
TTITLE4=Return of The Kwilk Kik Lee
TTITLE5=Nude Cave Breaks
TTITLE6=2nd Sex Complex
TTITLE7=Hot Blood
TTITLE8=Love,Lost Love
TTITLE9=Red Planet Dub
TTITLE10=Robo Rumba
TTITLE11=Moon Drum
TTITLE12=Synchro Screw
EXTD=YEAR: 2001/01/17
EXTT0=
EXTT1=
EXTT2=
EXTT3=
EXTT4=
EXTT5=
EXTT6=
EXTT7=
EXTT8=
EXTT9=
EXTT10=
EXTT11=
EXTT12=
PLAYORDER=
